<svg width="27" height="28" viewBox="0 0 27 28" fill="none" xmlns="http://www.w3.org/2000/svg">
<path d="M2.34962 12.8512C2.33632 12.6981 2.355 12.5439 2.40446 12.3984C2.45392 12.2529 2.53308 12.1192 2.63693 12.006C2.74078 11.8927 2.86703 11.8022 3.00769 11.7403C3.14836 11.6784 3.30035 11.6464 3.45402 11.6464H5.57136C5.86544 11.6464 6.14748 11.7632 6.35543 11.9712C6.56338 12.1791 6.6802 12.4612 6.6802 12.7552V23.2893C6.6802 23.5833 6.56338 23.8654 6.35543 24.0733C6.14748 24.2813 5.86544 24.3981 5.57136 24.3981H4.37048C4.09296 24.3982 3.82549 24.2942 3.62092 24.1066C3.41634 23.9191 3.28953 23.6617 3.26552 23.3852L2.34962 12.8512ZM10.0067 12.4087C10.0067 11.9452 10.295 11.5305 10.7136 11.3332C11.6279 10.9018 13.1852 10.0353 13.8877 8.86376C14.7931 7.35351 14.9638 4.6252 14.9915 4.00037C14.9954 3.91277 14.9932 3.82517 15.0048 3.73868C15.1551 2.6559 17.2447 3.92053 18.0459 5.2578C18.4811 5.98298 18.5365 6.93603 18.4911 7.68062C18.4417 8.47677 18.2083 9.24576 17.9793 10.0097L17.4914 11.6381H23.5108C23.6821 11.6381 23.8511 11.6778 24.0045 11.754C24.1579 11.8303 24.2916 11.9411 24.395 12.0777C24.4984 12.2143 24.5687 12.373 24.6005 12.5413C24.6322 12.7097 24.6246 12.8831 24.578 13.048L21.6008 23.5909C21.5351 23.8234 21.3952 24.0281 21.2024 24.1738C21.0097 24.3195 20.7746 24.3983 20.533 24.3981H11.1156C10.8215 24.3981 10.5395 24.2813 10.3315 24.0733C10.1236 23.8654 10.0067 23.5833 10.0067 23.2893V12.4087Z" fill="#EE3C35" stroke="#EE3C35" stroke-width="2" stroke-linecap="round" stroke-linejoin="round"/>
</svg>
