<svg width="52" height="54" viewBox="0 0 52 54" fill="none" xmlns="http://www.w3.org/2000/svg">
<circle cx="26" cy="26" r="26" fill="#FFF0F0"/>
<path d="M26.0001 30.6807C27.894 30.6807 29.7103 29.9978 31.0495 28.7822C32.3886 27.5667 33.141 25.918 33.141 24.199C33.141 22.4799 32.3886 20.8313 31.0495 19.6157C29.7103 18.4002 27.894 17.7173 26.0001 17.7173C24.1063 17.7173 22.29 18.4002 20.9508 19.6157C19.6116 20.8313 18.8593 22.4799 18.8593 24.199C18.8593 25.918 19.6116 27.5667 20.9508 28.7822C22.29 29.9978 24.1063 30.6807 26.0001 30.6807ZM10.445 44.7114C10.2252 45.2469 10.2014 45.8325 10.3772 46.3812C10.553 46.93 10.919 47.4127 11.4209 47.7578C15.5895 50.6987 20.7204 52.2924 26.0001 52.2863C31.4986 52.2863 36.5638 50.5924 40.5936 47.7491C41.6172 47.0296 42.0313 45.7981 41.5648 44.7027C40.3562 41.8465 38.2218 39.3901 35.4435 37.6576C32.6651 35.9251 29.3733 34.9981 26.0024 34.9988C22.6316 34.9995 19.3403 35.9279 16.5628 37.6615C13.7853 39.3952 11.6522 41.8525 10.445 44.7092" fill="#FF6262"/>
</svg>
