<svg width="27" height="28" viewBox="0 0 27 28" fill="none" xmlns="http://www.w3.org/2000/svg">
<path d="M2.00392 12.0384C1.99139 11.8931 2.00899 11.7467 2.05562 11.6086C2.10226 11.4705 2.17689 11.3436 2.2748 11.2361C2.3727 11.1285 2.49174 11.0427 2.62435 10.9839C2.75697 10.9251 2.90026 10.8948 3.04515 10.8947H5.04136C5.31862 10.8947 5.58452 11.0056 5.78057 11.203C5.97663 11.4005 6.08677 11.6682 6.08677 11.9474V21.9474C6.08677 22.2265 5.97663 22.4943 5.78057 22.6917C5.58452 22.8891 5.31862 23 5.04136 23H3.90918C3.64753 23.0001 3.39536 22.9013 3.20249 22.7233C3.00962 22.5453 2.89006 22.3009 2.86743 22.0384L2.00392 12.0384ZM9.223 11.6184C9.223 11.1784 9.4948 10.7847 9.88945 10.5974C10.7514 10.1879 12.2197 9.36526 12.8819 8.25316C13.7355 6.81947 13.8965 4.22947 13.9226 3.63631C13.9263 3.55316 13.9242 3.47 13.9352 3.38789C14.0768 2.36 16.0469 3.56052 16.8022 4.83C17.2125 5.51842 17.2648 6.42316 17.222 7.13C17.1754 7.88579 16.9554 8.61579 16.7395 9.34105L16.2795 10.8868H21.9545C22.116 10.8868 22.2754 10.9245 22.42 10.9969C22.5646 11.0693 22.6906 11.1745 22.7881 11.3042C22.8856 11.4338 22.9519 11.5845 22.9819 11.7443C23.0118 11.9041 23.0046 12.0687 22.9607 12.2253L20.1538 22.2337C20.0918 22.4544 19.96 22.6487 19.7782 22.7871C19.5965 22.9254 19.3749 23.0002 19.1471 23H10.2684C9.99115 23 9.72524 22.8891 9.52919 22.6917C9.33314 22.4943 9.223 22.2265 9.223 21.9474V11.6184Z" stroke="#EE3C35" stroke-width="1.5" stroke-linecap="round" stroke-linejoin="round"/>
</svg>
