<svg width="26" height="26" viewBox="0 0 26 26" fill="none" xmlns="http://www.w3.org/2000/svg">
<path d="M7.43599 18.801L9.72529 18.1407L23.5092 4.19248C23.6179 4.08107 23.6784 3.93137 23.6777 3.7757C23.677 3.62004 23.615 3.47091 23.5053 3.36053L22.6798 2.52597C22.6264 2.47116 22.5627 2.42753 22.4923 2.39762C22.4219 2.3677 22.3463 2.35211 22.2698 2.35175C22.1933 2.35138 22.1175 2.36626 22.0468 2.3955C21.9762 2.42475 21.912 2.46777 21.8582 2.52207L8.11069 16.4339L7.43599 18.801ZM24.3139 0.872471L25.1394 1.70832C26.2782 2.86135 26.2886 4.72155 25.1602 5.86288L10.9564 20.2374L6.06319 21.6466C5.91526 21.6881 5.76059 21.7002 5.60802 21.682C5.45544 21.6638 5.30794 21.6157 5.17394 21.5405C5.03994 21.4653 4.92207 21.3644 4.82706 21.2437C4.73205 21.1229 4.66175 20.9846 4.62019 20.8367C4.55644 20.6222 4.55553 20.3939 4.61759 20.1789L6.04109 15.1872L20.2072 0.850372C20.4765 0.579153 20.7972 0.364281 21.1505 0.218287C21.5038 0.0722933 21.8826 -0.00189907 22.2649 3.69345e-05C22.6471 0.00197294 23.0252 0.0799986 23.377 0.229563C23.7288 0.379128 24.0473 0.598537 24.3139 0.872471ZM9.33919 2.37128C9.98398 2.37128 10.5066 2.90035 10.5066 3.55291C10.5076 3.70717 10.4782 3.86012 10.4201 4.00302C10.362 4.14591 10.2762 4.27595 10.1678 4.38569C10.0594 4.49543 9.93041 4.58273 9.78823 4.64259C9.64604 4.70245 9.49345 4.73369 9.33919 4.73454H4.66959C3.37999 4.73454 2.3348 5.79268 2.3348 7.09651V21.2735C2.3348 22.5786 3.37999 23.6367 4.66959 23.6367H18.6784C19.968 23.6367 21.0145 22.5786 21.0145 21.2735V16.5483C21.0145 15.8957 21.5371 15.3666 22.1819 15.3666C22.8267 15.3666 23.3493 15.8957 23.3493 16.5496V21.2735C23.3493 23.8837 21.2576 26 18.6784 26H4.66959C2.0904 26 0 23.8837 0 21.2735V7.09651C0 4.48756 2.0904 2.37128 4.66959 2.37128H9.33919Z" fill="white"/>
</svg>
